<svg width="356" height="429" viewBox="0 0 356 429" fill="none" xmlns="http://www.w3.org/2000/svg">
<path fill-rule="evenodd" clip-rule="evenodd" d="M97.2827 17.7065C89.2837 19.002 78.2579 22.4223 64.1724 28.0072L63.4651 26.1317C77.5958 20.5289 88.7907 17.0414 97.0171 15.7091C101.128 15.0433 104.558 14.9052 107.268 15.3428C109.982 15.7811 112.076 16.8164 113.338 18.5841C114.6 20.3519 114.899 22.6681 114.431 25.3776C113.965 28.0827 112.72 31.2817 110.755 34.9535C106.822 42.3009 99.8873 51.7558 89.998 63.2999C80.1402 74.8072 73.3236 84.1239 69.4998 91.2681C67.5869 94.8422 66.4524 97.819 66.0385 100.22C65.6252 102.616 65.9446 104.336 66.8 105.534C67.6553 106.732 69.1779 107.593 71.5787 107.981C73.9837 108.369 77.1676 108.263 81.1692 107.615C89.1682 106.32 100.194 102.899 114.28 97.3145C128.41 91.7117 139.605 88.2242 147.832 86.8919C151.943 86.226 155.373 86.088 158.083 86.5256C160.797 86.9639 162.89 87.9992 164.152 89.7669C165.414 91.5347 165.713 93.8509 165.246 96.5604C164.779 99.2655 163.535 102.465 161.569 106.136C160.884 107.417 160.107 108.762 159.239 110.171C199.451 117.67 223.653 168.281 191.627 205.666C181.769 217.173 174.952 226.489 171.129 233.634C169.216 237.208 168.081 240.185 167.667 242.585C167.254 244.982 167.574 246.701 168.429 247.9C169.284 249.098 170.807 249.959 173.208 250.346C175.613 250.735 178.797 250.629 182.798 249.981C190.797 248.685 201.823 245.265 215.908 239.68C230.039 234.077 241.234 230.59 249.46 229.257C253.572 228.592 257.001 228.454 259.711 228.891C262.426 229.329 264.519 230.365 265.781 232.133C267.043 233.9 267.342 236.217 266.875 238.926C266.408 241.631 265.164 244.83 263.198 248.502C259.266 255.849 252.331 265.304 242.441 276.848C222.912 299.646 214.569 334.611 218.125 361.072C219.903 374.302 224.633 385.238 232.238 391.497C239.773 397.697 250.311 399.453 264.143 393.969C265.723 393.343 267.267 392.677 268.775 391.977C268.633 391.815 268.498 391.645 268.372 391.469C267.11 389.701 266.811 387.385 267.278 384.675C267.745 381.97 268.99 378.771 270.955 375.099C274.887 367.752 281.822 358.297 291.712 346.753C296.678 340.956 300.888 336.957 304.351 334.467C307.762 332.015 310.65 330.883 312.894 331.219C314.062 331.394 315.006 331.963 315.684 332.85C316.346 333.716 316.722 334.841 316.88 336.11C317.195 338.636 316.677 341.976 315.435 345.754C310.949 359.403 296.588 380.014 272.843 392.216C273.426 392.425 274.089 392.591 274.836 392.712C277.241 393.1 280.425 392.994 284.427 392.346C292.426 391.051 303.452 387.63 317.537 382.046L318.245 383.921C304.114 389.524 292.919 393.011 284.693 394.344C280.581 395.01 277.152 395.148 274.442 394.71C272.916 394.464 271.587 394.029 270.492 393.382C268.664 394.255 266.783 395.078 264.85 395.845C250.466 401.548 239.105 399.824 230.898 393.07C222.762 386.374 217.907 374.881 216.095 361.403C212.473 334.447 220.933 298.876 240.897 275.57C250.755 264.063 257.572 254.746 261.395 247.602C263.308 244.028 264.443 241.051 264.857 238.65C265.27 236.254 264.951 234.534 264.095 233.336C263.24 232.138 261.717 231.277 259.317 230.889C256.912 230.501 253.728 230.607 249.726 231.255C241.727 232.55 230.701 235.971 216.616 241.556C202.485 247.158 191.29 250.646 183.064 251.978C178.953 252.644 175.523 252.782 172.813 252.344C170.098 251.906 168.005 250.871 166.743 249.103C165.481 247.335 165.182 245.019 165.649 242.31C166.116 239.605 167.361 236.406 169.326 232.734C173.258 225.386 180.193 215.931 190.083 204.387C221.196 168.068 197.324 118.8 158.058 112.042C153.985 118.342 148.229 125.825 140.812 134.483C130.853 146.109 121.366 152.233 113.558 154.424C105.761 156.611 99.4858 154.887 96.3968 150.559C93.3079 146.232 93.7154 139.737 98.3172 133.073C102.925 126.401 111.799 119.418 126.03 113.775C136.888 109.471 147.421 108.401 157.093 109.815C158.106 108.2 158.997 106.674 159.767 105.236C161.679 101.662 162.814 98.6854 163.228 96.2847C163.641 93.8882 163.322 92.1685 162.466 90.9703C161.611 89.7721 160.088 88.9114 157.688 88.5237C155.283 88.1354 152.099 88.2412 148.097 88.8893C140.098 90.1848 129.072 93.6051 114.987 99.19C100.856 104.793 89.6612 108.28 81.4348 109.613C77.3237 110.278 73.8938 110.416 71.1838 109.979C68.4696 109.541 66.3761 108.505 65.1142 106.737C63.8523 104.97 63.5532 102.654 64.0204 99.9441C64.4869 97.2389 65.7317 94.0399 67.697 90.3681C71.6295 83.0207 78.5646 73.5659 88.454 62.0217C98.3117 50.5144 105.128 41.1978 108.952 34.0535C110.865 30.4795 111.999 27.5026 112.413 25.1019C112.827 22.7054 112.507 20.9857 111.652 19.7875C110.797 18.5893 109.274 17.7286 106.873 17.3409C104.468 16.9526 101.284 17.0584 97.2827 17.7065ZM155.874 111.712C146.771 110.529 136.901 111.621 126.738 115.651C112.753 121.196 104.289 127.961 99.9959 134.177C95.6967 140.402 95.6402 145.935 98.0826 149.356C100.525 152.777 105.776 154.521 113.06 152.478C120.333 150.437 129.481 144.629 139.268 133.204C146.38 124.902 151.909 117.741 155.874 111.712ZM270.749 391.03C294.683 379.185 309.091 358.568 313.49 345.186C314.688 341.542 315.111 338.53 314.848 336.423C314.717 335.375 314.424 334.613 314.035 334.104C313.662 333.615 313.172 333.318 312.522 333.221C311.13 333.012 308.842 333.702 305.519 336.091C302.248 338.443 298.164 342.302 293.256 348.031C283.398 359.538 276.581 368.855 272.758 375.999C270.845 379.573 269.71 382.55 269.296 384.951C268.883 387.347 269.202 389.067 270.058 390.265C270.253 390.538 270.482 390.794 270.749 391.03Z" fill="#F2BC94" fill-opacity="0.4"/>
</svg>
