<svg width="25" height="25" viewBox="0 0 25 25" fill="none" xmlns="http://www.w3.org/2000/svg">
<path d="M24.654 13.6059L16.3203 24.5416C15.5762 25.518 14.2864 24.8345 14.2864 23.435V17.186H7.54006C6.8803 17.186 6.34952 16.4895 6.34952 15.6238V9.37483C6.34952 8.50909 6.8803 7.81259 7.54006 7.81259H14.2864V1.56362C14.2864 0.170627 15.5712 -0.519362 16.3203 0.457038L24.654 11.3927C25.1153 12.0046 25.1153 12.994 24.654 13.6059ZM9.52428 24.2161V21.6124C9.52428 21.1828 9.25641 20.8313 8.92901 20.8313H4.76214C3.88412 20.8313 3.17476 19.9004 3.17476 18.7483V6.25035C3.17476 5.09819 3.88412 4.16736 4.76214 4.16736H8.92901C9.25641 4.16736 9.52428 3.81585 9.52428 3.38624V0.782505C9.52428 0.352889 9.25641 0.00138444 8.92901 0.00138444H4.76214C2.13304 0.00138444 0 2.8004 0 6.25035V18.7483C0 22.1982 2.13304 24.9972 4.76214 24.9972H8.92901C9.25641 24.9972 9.52428 24.6457 9.52428 24.2161Z" fill="#F4AF1B"/>
</svg>
