<svg width="288" height="310" viewBox="0 0 288 310" fill="none" xmlns="http://www.w3.org/2000/svg">
<path fill-rule="evenodd" clip-rule="evenodd" d="M129.304 0.709308C157.852 -2.99003 188.208 8.04927 208.991 27.556C228.652 46.01 224.213 76.939 236.085 100.934C250.944 130.967 295.598 152.73 286.882 184.989C278.309 216.722 226.928 210.612 200.871 231.279C172.295 253.943 166.053 311.516 129.304 309.969C91.9359 308.396 87.4695 252.308 62.0753 225.436C43.7783 206.074 10.1023 200.515 2.07896 175.338C-5.93128 150.203 11.001 124.747 22.3842 100.89C32.4002 79.8989 46.505 62.4173 63.6044 46.3956C83.4964 27.7574 102.002 4.24714 129.304 0.709308Z" fill="#00154F" fill-opacity="0.1"/>
</svg>
