<svg width="276" height="344" viewBox="0 0 276 344" fill="none" xmlns="http://www.w3.org/2000/svg">
<path fill-rule="evenodd" clip-rule="evenodd" d="M138.721 59.7111C152.745 66.5639 169.142 59.1551 184.595 57.9548C212.861 55.7593 247.118 29.9424 268.183 49.6554C287.274 67.52 266.204 102.425 259.727 128.262C255.021 147.037 237.533 160.649 235.525 179.937C233.142 202.829 250.141 224.184 247.363 247.028C243.861 275.819 239.025 308.625 217.608 327.242C196.875 345.264 165.322 346.437 138.721 341.465C113.028 336.663 93.8815 315.536 72.4088 300.103C53.5452 286.545 32.4452 275.474 19.5124 255.788C6.8842 236.565 -0.0760901 213.159 0.000627504 189.882C0.0724003 168.106 16.3356 150.242 19.9309 128.788C23.765 105.91 13.9779 81.7871 21.7637 60.0205C30.3206 36.098 41.4437 0.0650563 65.9974 0.00011159C97.2812 -0.0826344 110.41 45.8764 138.721 59.7111Z" fill="#00154F" fill-opacity="0.1"/>
</svg>
