<svg width="412" height="420" viewBox="0 0 412 420" fill="none" xmlns="http://www.w3.org/2000/svg">
<path fill-rule="evenodd" clip-rule="evenodd" d="M138.726 161.262C131.805 134.024 112.434 101.544 127.688 79.5899C139.267 62.9241 169.999 84.6372 191.516 85.2837C212.176 85.9045 231.749 80.2952 252.39 83.3371C277.151 86.9862 315.161 81.6669 324.116 104.825C335.396 133.994 297.743 157.121 292.284 186.504C289.732 200.241 297.724 214.246 301.178 228.289C306.338 249.266 337.289 282.278 317.792 290.213C290.556 301.298 250.226 234.56 231.729 256.554C200.099 294.166 262.699 377.829 221.202 405.069C189.552 425.844 196.811 326.611 166.047 299.669C148.119 283.969 115.804 311.854 97.4231 296.669C80.269 282.498 76.568 251.926 87.1919 234.528C100.953 211.992 142.562 219.468 157.746 197.88C165.225 187.248 142.091 174.506 138.726 161.262Z" fill="#00154F" fill-opacity="0.1"/>
</svg>
