<svg width="634" height="635" viewBox="0 0 634 635" fill="none" xmlns="http://www.w3.org/2000/svg">
<g clip-path="url(#clip0)">
<path d="M475.104 297.091C456.33 283.403 410.897 274.826 367.001 266.537C342.523 261.925 319.39 257.558 303.585 252.811C299.616 251.603 295.32 252.848 292.577 255.898C287.479 261.597 284.521 265.465 282.178 268.493C278.613 273.124 277.42 274.687 271.431 278.732C268.783 280.52 267.075 283.377 266.769 286.545C264.169 313.549 249.507 319.257 238.663 321.118C235.207 321.719 234.003 320.742 233.075 319.692C226.665 312.506 226.237 287.978 232.165 268.243C246.26 221.271 257.89 205.155 299.138 202.126C345.938 198.702 390.844 191.575 391.29 191.503C397.151 190.554 401.073 185.102 400.144 179.279C399.197 173.466 393.743 169.496 387.92 170.425C387.473 170.496 343.461 177.482 297.583 180.821C244.145 184.739 227.332 210.136 211.744 262.078C205.807 281.842 202.342 317.232 217.11 333.876C223.411 340.952 232.357 343.891 242.354 342.121C267.42 337.697 283.227 320.52 287.364 293.537C292.843 289.403 295.366 286.302 299.068 281.476C300.409 279.737 301.981 277.705 304.127 275.12C320.302 279.428 341.122 283.367 363.036 287.493C402.67 294.973 447.614 303.45 462.542 314.314C469.909 319.677 468.707 326.404 467.333 329.929C465.331 335.124 460.786 338.878 456.983 338.428C452.818 337.98 448.783 339.981 446.656 343.547C444.51 347.124 444.655 351.625 447.01 355.057C450.863 360.688 447.236 367.049 445.505 369.506C441.13 375.784 434.573 378.634 431.052 377.718C427.107 376.691 422.947 378.008 420.27 381.047C417.603 384.104 416.931 388.439 418.513 392.19C421.264 398.656 419.883 407.03 415.17 412.544C412.882 415.18 409.065 418.082 403.487 416.673C400.026 415.823 396.359 416.753 393.729 419.113C391.071 421.511 389.802 425.053 390.318 428.578C390.467 429.71 390.871 432.399 382.079 437.129C375.823 440.495 362.295 442.322 354.83 441.638C345.901 440.846 287.954 432.243 236.15 421.547C228.86 420.019 215.308 415.632 203.337 411.753C192.716 408.31 183.031 405.212 178.381 404.225C172.56 402.996 166.915 406.687 165.733 412.459C164.521 418.222 168.204 423.897 173.967 425.108C178.204 426.002 187.043 428.925 196.749 432.061C209.838 436.308 223.37 440.705 231.822 442.456C282.561 452.926 341.617 461.925 352.957 462.922C362.317 463.749 380.651 462.122 392.187 455.916C401.449 450.933 407.427 444.979 410.134 438.17C418.132 437.186 425.657 433.162 431.374 426.452C438.144 418.547 441.582 408.098 441.219 397.877C449.47 395.473 457.347 389.805 462.967 381.792C468.46 373.945 470.784 365.208 469.841 356.97C477.53 353.342 483.808 346.55 487.235 337.656C493.058 322.63 488.305 306.681 475.104 297.091Z" fill="#00154F"/>
<path d="M223.221 231.898L138.678 277.38C133.493 280.169 131.549 286.642 134.338 291.827C137.128 297.013 143.601 298.957 148.786 296.168L233.328 250.686C238.513 247.896 240.458 241.423 237.668 236.238C234.879 231.053 228.406 229.108 223.221 231.898Z" fill="#00154F"/>
<path d="M491.873 262.295C486.646 259.559 480.185 261.509 477.46 266.754L459.919 299.979C457.173 305.186 459.17 311.646 464.378 314.391C467.646 316.098 471.403 315.966 474.428 314.339C476.213 313.379 477.762 311.891 478.792 309.932L496.333 276.707C499.078 271.5 497.08 265.041 491.873 262.295Z" fill="#00154F"/>
<path d="M457.673 338.494C448.097 336.814 401.453 322.204 372.423 312.821C366.813 310.994 360.788 314.067 358.989 319.686C357.162 325.296 360.253 331.311 365.853 333.12C373.39 335.557 439.863 357.039 453.969 359.528C456.406 359.961 458.827 359.507 460.856 358.416C463.618 356.93 465.712 354.204 466.327 350.845C467.357 345.057 463.479 339.513 457.673 338.494Z" fill="#00154F"/>
<path d="M430.273 377.531C414.178 374.586 369.743 359.756 359.615 356.242C354.021 354.31 347.982 357.268 346.029 362.824C344.105 368.389 347.046 374.486 352.611 376.41C353.141 376.585 406.481 394.861 426.425 398.522C428.891 398.963 431.34 398.517 433.388 397.416C436.131 395.94 438.216 393.243 438.843 389.951C439.893 384.153 436.051 378.589 430.273 377.531Z" fill="#00154F"/>
<path d="M403.065 416.563C383.595 412.479 340.489 398.048 332.052 395.198C326.459 393.314 320.392 396.311 318.526 401.893C316.642 407.485 319.647 413.523 325.221 415.419C337.361 419.522 378.546 433.218 398.679 437.454C401.243 437.988 403.779 437.569 405.921 436.417C408.588 434.982 410.64 432.4 411.318 429.202C412.519 423.419 408.828 417.774 403.065 416.563Z" fill="#00154F"/>
<path d="M136.419 257.69C112.111 251.096 45.0697 280.792 25.1028 290.056C22.3647 291.36 20.3781 293.567 19.46 296.362C18.5306 299.139 18.7938 302.195 20.1886 304.788L111.152 473.872C113.942 479.058 120.415 481.002 125.6 478.213L181.961 447.891C186.02 445.708 188.222 441.156 187.398 436.609C186.505 431.663 165.43 314.902 143.416 263.761C142.124 260.773 139.556 258.521 136.419 257.69ZM164.997 432.794L124.886 454.372L44.393 304.751C75.8678 290.895 111.234 278.554 126.163 277.936C143.319 321.758 160.12 406.977 164.997 432.794Z" fill="#00154F"/>
<path d="M466.741 76.6653C392.982 116.346 362.221 157.24 360.936 158.949C359.11 161.408 358.43 164.512 359.063 167.491C359.697 170.469 361.558 173.029 364.2 174.562C385.867 187.01 478.072 271.27 498.685 292.835C502.005 296.305 507.223 297.132 511.45 294.858L567.811 264.537C572.997 261.747 574.941 255.274 572.151 250.089L481.188 81.0046C478.388 75.8008 471.926 73.8757 466.741 76.6653ZM548.311 250.803L508.37 272.291C483.859 248.074 416.865 186.587 385.375 163.219C397.092 150.642 423.387 125.715 467.516 100.619L548.311 250.803Z" fill="#00154F"/>
</g>
<defs>
<clipPath id="clip0">
<rect y="142" width="512" height="512" transform="rotate(-16.0003 0 142)" fill="white"/>
</clipPath>
</defs>
</svg>
