<svg width="694" height="694" viewBox="0 0 694 694" fill="none" xmlns="http://www.w3.org/2000/svg">
<g clip-path="url(#clip0)">
<path d="M436.238 197.322L502.412 320.877C496.924 332.771 485.707 341.198 472.785 343.279L468.507 343.876C467.919 316.119 449.479 291.63 422.421 283.132L325.102 253.698L366.034 209.028L436.238 197.322Z" fill="black"/>
<path d="M328.469 363.459L429.804 393.161L429.905 393.349C431.435 400.274 431.159 407.44 429.063 414.37C425.207 426.6 416.602 436.29 405.769 441.366L297.187 408.527C296.301 410.938 296.656 413.41 297.764 415.478C299.074 417.923 301.612 419.952 304.863 420.147L407.252 450.01C407.789 455.531 407.372 461.078 405.713 466.565C402.132 478.405 393.991 487.605 383.836 493.044C374.057 498.282 362.364 499.946 350.913 496.64L289.497 481.375C276.038 477.935 262.384 477.746 248.811 480.417C248.697 479.752 248.395 479.188 248.093 478.624L163.487 320.654L201.142 274.834C211.936 261.551 228.149 254.32 244.664 254.429L242.461 257.545C230.619 274.293 227.406 295.858 234.08 316C240.827 335.377 256.716 350.584 276.454 356.711C290.893 361.078 306.615 360.159 320.572 354.136C320.336 355.956 320.665 357.474 321.37 358.791C322.78 361.424 325.218 363.264 328.469 363.459V363.459Z" fill="black"/>
<path d="M447.418 347.427C447.525 351.242 447.055 354.882 445.919 358.636C442.513 369.898 436.078 378.669 427.454 384.256L323.305 352.914L325.562 351.706C334.589 346.871 342.407 339.78 348.19 331.6L352.496 325.18L376.08 291.495L416.22 303.635C416.22 303.635 416.22 303.635 416.509 303.722C435.669 309.675 448.112 327.937 447.418 347.427V347.427Z" fill="black"/>
<path d="M222.736 510.355L175.721 535.535C167.936 539.705 158.233 536.77 154.063 528.984L68.45 369.134C64.2802 361.348 67.2147 351.645 75.0004 347.475L122.015 322.295C129.801 318.125 139.504 321.06 143.674 328.845L229.287 488.696C233.456 496.482 230.522 506.185 222.736 510.355Z" fill="black"/>
<path d="M598.855 308.913L551.841 334.093C544.055 338.263 534.352 335.328 530.182 327.543L444.569 167.692C440.399 159.906 443.334 150.203 451.12 146.033L498.135 120.853C505.92 116.683 515.623 119.618 519.793 127.404L605.406 287.254C609.576 295.04 606.641 304.743 598.855 308.913Z" fill="black"/>
<path d="M399.282 176.217C399.094 176.317 398.805 176.23 398.429 176.431L345.896 181.819C329.623 183.516 314.779 191.95 305.328 205.482L267.787 258.743L259.888 269.75C251.901 281.045 249.831 295.706 254.209 308.85C258.774 321.893 269.371 332.19 282.655 336.207C293.917 339.614 305.711 338.137 315.49 332.9C321.32 329.777 326.633 325.238 330.575 319.496L335.069 312.975L354.71 285.032L409.413 207.333L439.965 204.28L425.763 177.764C425.058 176.448 424.353 175.131 424.125 173.801L399.282 176.217Z" fill="black"/>
</g>
<defs>
<clipPath id="clip0">
<rect x="0.463409" y="242.194" width="512" height="512" transform="rotate(-28.1726 0.463409 242.194)" fill="white"/>
</clipPath>
</defs>
</svg>
