<svg width="634" height="635" viewBox="0 0 634 635" fill="none" xmlns="http://www.w3.org/2000/svg">
<g clip-path="url(#clip0)">
<path d="M475.546 333.758C460.113 316.39 417.543 298.347 376.414 280.913C353.478 271.2 331.802 262.014 317.368 254.013C313.747 251.989 309.285 252.292 305.956 254.689C299.763 259.173 296.049 262.324 293.116 264.785C288.648 268.551 287.149 269.825 280.437 272.503C277.47 273.687 275.193 276.116 274.22 279.147C265.936 304.98 250.396 307.438 239.404 306.951C235.899 306.803 234.931 305.593 234.247 304.369C229.513 295.984 234.31 271.927 244.3 253.904C268.062 211.004 282.853 197.73 323.802 203.543C370.26 210.15 415.654 212.736 416.106 212.761C422.034 213.08 427.026 208.586 427.357 202.699C427.668 196.817 423.182 191.779 417.295 191.448C416.843 191.422 372.352 188.888 326.814 182.394C273.765 174.858 251.935 196.098 225.658 243.537C215.653 261.586 204.74 295.43 215.631 314.834C220.283 323.087 228.399 327.862 238.544 328.259C263.978 329.266 283.076 315.844 292.857 290.359C299.09 287.484 302.215 284.99 306.858 281.062C308.538 279.648 310.506 277.997 313.154 275.928C328.042 283.577 347.548 291.853 368.083 300.546C405.22 316.284 447.332 334.125 459.609 347.915C465.667 354.722 463.062 361.04 460.969 364.192C457.909 368.843 452.669 371.544 449.049 370.295C445.074 368.972 440.706 370.069 437.869 373.102C435.012 376.14 434.196 380.568 435.768 384.423C438.334 390.745 433.437 396.189 431.224 398.221C425.614 403.425 418.6 404.815 415.355 403.171C411.719 401.329 407.373 401.732 404.112 404.132C400.856 406.552 399.277 410.645 400.025 414.647C401.338 421.549 398.207 429.438 392.43 433.824C389.633 435.913 385.286 437.936 380.136 435.374C376.934 433.806 373.154 433.936 370.082 435.682C366.975 437.46 364.982 440.651 364.736 444.206C364.641 445.343 364.464 448.057 354.867 450.809C348.038 452.767 334.431 451.675 327.283 449.419C318.726 446.746 263.935 426.017 215.59 404.548C208.792 401.504 196.483 394.336 185.611 388C175.965 382.377 167.16 377.29 162.827 375.336C157.401 372.898 151.1 375.304 148.717 380.692C146.308 386.065 148.699 392.394 154.073 394.803C158.022 396.578 166.038 401.314 174.854 406.442C186.741 413.375 199.028 420.549 206.915 424.058C254.267 445.08 310.058 466.432 320.926 469.818C329.896 472.617 348.157 474.926 360.748 471.315C370.858 468.416 377.966 463.87 382.059 457.792C390.083 458.532 398.292 456.2 405.305 450.86C413.601 444.575 419.183 435.096 421.002 425.032C429.575 424.437 438.478 420.575 445.674 413.941C452.709 407.44 456.839 399.399 457.669 391.148C465.954 389.238 473.532 383.936 478.773 375.975C487.658 362.531 486.405 345.936 475.546 333.758Z" fill="black"/>
<path d="M243.29 216.488L151.009 242.949C145.349 244.572 142.072 250.483 143.695 256.143C145.318 261.803 151.23 265.08 156.889 263.457L249.17 236.995C254.83 235.372 258.107 229.461 256.484 223.801C254.861 218.141 248.95 214.865 243.29 216.488Z" fill="black"/>
<path d="M499.332 303.324C494.806 299.54 488.079 300.07 484.3 304.616L460.094 333.351C456.304 337.855 456.881 344.592 461.386 348.382C464.216 350.744 467.915 351.414 471.217 350.468C473.166 349.909 474.996 348.785 476.419 347.09L500.625 318.356C504.414 313.851 503.836 307.115 499.332 303.324Z" fill="black"/>
<path d="M449.709 370.507C440.709 366.829 398.24 342.633 371.869 327.291C366.776 324.313 360.235 326.034 357.282 331.141C354.304 336.235 356.045 342.77 361.132 345.728C367.979 349.712 428.363 384.84 441.616 390.272C443.905 391.213 446.367 391.285 448.582 390.649C451.597 389.785 454.223 387.567 455.538 384.416C457.776 378.979 455.165 372.737 449.709 370.507Z" fill="black"/>
<path d="M414.634 402.824C399.533 396.523 359.268 372.582 350.119 366.995C345.064 363.917 338.534 365.523 335.444 370.537C332.381 375.565 333.958 382.148 338.987 385.212C339.467 385.495 387.7 414.698 406.409 422.516C408.725 423.471 411.213 423.557 413.448 422.916C416.442 422.057 419.053 419.866 420.366 416.782C422.625 411.34 420.054 405.086 414.634 402.824Z" fill="black"/>
<path d="M379.747 435.176C361.591 427.045 322.54 403.777 314.902 399.198C309.838 396.167 303.272 397.805 300.262 402.863C297.231 407.926 298.884 414.465 303.927 417.503C314.917 424.094 352.247 446.236 371.019 454.657C373.41 455.724 375.977 455.853 378.315 455.183C381.227 454.348 383.781 452.262 385.123 449.281C387.526 443.886 385.12 437.586 379.747 435.176Z" fill="black"/>
<path d="M152.989 223.23C130.639 211.617 58.816 226.376 37.3356 231.182C34.3829 231.873 31.9723 233.607 30.4807 236.143C28.982 238.659 28.5893 241.701 29.4008 244.531L82.3241 429.093C83.9471 434.753 89.8582 438.029 95.5181 436.406L157.039 418.765C161.468 417.495 164.588 413.516 164.751 408.897C164.93 403.874 169.169 285.302 158.534 230.65C157.907 227.456 155.877 224.709 152.989 223.23ZM143.673 400.405L99.8907 412.96L53.0594 249.643C86.761 242.797 123.943 238.26 138.662 240.831C146.106 287.299 144.398 374.142 143.673 400.405Z" fill="black"/>
<path d="M514.253 116.596C433.742 139.683 394.988 173.099 393.369 174.496C391.062 176.511 389.737 179.399 389.723 182.444C389.708 185.489 390.982 188.386 393.238 190.446C411.762 207.217 483.938 309.159 499.493 334.615C501.999 338.711 506.921 340.629 511.536 339.306L573.056 321.665C578.716 320.042 581.993 314.131 580.37 308.471L527.446 123.909C525.818 118.229 519.913 114.973 514.253 116.596ZM556.923 304.098L513.325 316.6C494.525 287.724 442.141 213.396 416.341 183.866C430.464 174.068 461.459 155.304 509.916 140.167L556.923 304.098Z" fill="black"/>
</g>
<defs>
<clipPath id="clip0">
<rect y="142" width="512" height="512" transform="rotate(-16.0003 0 142)" fill="white"/>
</clipPath>
</defs>
</svg>
