<svg id="Capa_1" enable-background="new 0 0 512 512" height="512" viewBox="0 0 512 512" width="512" xmlns="http://www.w3.org/2000/svg"><g id="XMLID_1033_"><g id="XMLID_49_"><path id="XMLID_69_" d="m299.571 252.94c8.971-10.215 14.429-23.588 14.429-38.22v-9.6c0-31.981-26.019-58-58-58s-58 26.019-58 58v9.6c0 14.632 5.458 28.005 14.429 38.22-34.868 2.673-62.429 31.879-62.429 67.42v34.52c0 5.522 4.477 10 10 10h192c5.523 0 10-4.478 10-10v-34.52c0-35.541-27.561-64.747-62.429-67.42zm-81.571-47.82c0-20.953 17.047-38 38-38s38 17.047 38 38v9.6c0 20.953-17.047 38-38 38s-38-17.046-38-38zm124 139.76h-172v-24.52c0-26.27 21.371-47.641 47.64-47.641h76.72c26.269 0 47.64 21.371 47.64 47.641z"/><path id="XMLID_72_" d="m415.81 405.81c-2.64 0-5.21 1.061-7.08 2.92-1.86 1.87-2.92 4.44-2.92 7.08 0 2.63 1.06 5.2 2.92 7.07 1.87 1.86 4.45 2.93 7.08 2.93s5.21-1.069 7.07-2.93 2.93-4.44 2.93-7.07c0-2.64-1.07-5.21-2.93-7.08-1.86-1.86-4.44-2.92-7.07-2.92z"/><path id="XMLID_75_" d="m502 246h-10.222c-2.455-59.284-26.692-114.668-68.901-156.877s-97.593-66.446-156.877-68.901v-10.222c0-5.523-4.477-10-10-10s-10 4.477-10 10v10.222c-59.284 2.455-114.668 26.692-156.877 68.901s-66.446 97.593-68.901 156.877h-10.222c-5.523 0-10 4.477-10 10 0 5.522 4.477 10 10 10h10.222c2.455 59.284 26.692 114.668 68.901 156.877 42.209 42.21 97.593 66.446 156.877 68.901v10.222c0 5.522 4.477 10 10 10s10-4.478 10-10v-10.217c43.111-1.802 84.589-15.235 120.529-39.137 4.599-3.059 5.848-9.267 2.789-13.865s-9.266-5.846-13.864-2.789c-32.648 21.714-70.299 33.982-109.454 35.771v-24.022c97.927-5.049 176.692-83.814 181.741-181.741h24.022c-1.788 39.154-14.057 76.806-35.771 109.454-3.059 4.599-1.81 10.807 2.789 13.864 4.598 3.06 10.807 1.81 13.864-2.788 23.903-35.94 37.335-77.419 39.138-120.53h10.217c5.523 0 10-4.478 10-10 0-5.523-4.477-10-10-10zm-30.24 0h-24.019c-5.049-97.927-83.814-176.692-181.741-181.741v-24.019c111.163 5.092 200.668 94.597 205.76 205.76zm-225.76-205.76v24.019c-97.927 5.049-176.692 83.814-181.741 181.741h-24.019c5.092-111.163 94.597-200.668 205.76-205.76zm-205.76 225.76h24.019c5.049 97.927 83.814 176.692 181.741 181.741v24.019c-111.163-5.092-200.668-94.598-205.76-205.76zm225.76 161.702v-28.822c0-5.522-4.477-10-10-10s-10 4.478-10 10v28.822c-86.894-5.007-156.695-74.808-161.702-161.702h28.822c5.523 0 10-4.478 10-10 0-5.523-4.477-10-10-10h-28.822c5.007-86.894 74.808-156.695 161.702-161.702v28.822c0 5.523 4.477 10 10 10s10-4.477 10-10v-28.822c86.894 5.007 156.695 74.808 161.702 161.702h-28.822c-5.523 0-10 4.477-10 10 0 5.522 4.477 10 10 10h28.822c-5.007 86.894-74.808 156.695-161.702 161.702z"/></g></g></svg>